<svg width="24" height="20" viewBox="0 0 24 20" fill="none" xmlns="http://www.w3.org/2000/svg">
<path d="M2.22222 2.61114L9.68711 8.24835L9.6896 8.25042C10.5185 8.85826 10.9332 9.16237 11.3874 9.27985C11.7888 9.38368 12.2108 9.38368 12.6123 9.27985C13.0669 9.16226 13.4828 8.85727 14.3132 8.24835C14.3132 8.24835 19.1012 4.57395 21.7778 2.61114M1 14.5892V5.30027C1 3.93125 1 3.24623 1.26643 2.72333C1.50079 2.26338 1.87447 1.8897 2.33442 1.65534C2.85731 1.38892 3.54233 1.38892 4.91135 1.38892H19.0891C20.4581 1.38892 21.1417 1.38892 21.6646 1.65534C22.1245 1.8897 22.4995 2.26338 22.7338 2.72333C23 3.24572 23 3.92991 23 5.29625V14.5933C23 15.9596 23 16.6428 22.7338 17.1652C22.4995 17.6252 22.1245 17.9995 21.6646 18.2339C21.1422 18.5 20.459 18.5 19.0927 18.5H4.90733C3.54099 18.5 2.8568 18.5 2.33442 18.2339C1.87447 17.9995 1.50079 17.6252 1.26643 17.1652C1 16.6423 1 15.9582 1 14.5892Z" stroke="#017AC3" stroke-width="1.5" stroke-linecap="round" stroke-linejoin="round"/>
</svg>
