<svg width="20" height="20" viewBox="0 0 20 20" fill="none" xmlns="http://www.w3.org/2000/svg">
<path d="M15.2501 4.3918V10.5722C15.2501 10.8205 15.3488 11.0587 15.5246 11.2343C15.7004 11.41 15.9389 11.5086 16.1875 11.5086C16.4575 11.5086 16.3751 11.3476 16.3751 17.689C16.3751 18.0367 16.5133 18.3701 16.7594 18.616C17.0056 18.8618 17.3394 19 17.6875 19C18.0357 19 18.3695 18.8618 18.6156 18.616C18.8618 18.3701 19 18.0367 19 17.689V1.39525C19 0.361442 15.2501 1.35405 15.2501 4.3918ZM18.25 17.689C18.25 17.838 18.1908 17.9809 18.0853 18.0863C17.9798 18.1917 17.8368 18.2508 17.6875 18.2508C17.5384 18.2508 17.3953 18.1917 17.2898 18.0863C17.1843 17.9809 17.125 17.838 17.125 17.689V11.6959C17.125 11.4475 17.0263 11.2093 16.8504 11.0337C16.6747 10.8581 16.4362 10.7595 16.1875 10.7595C15.9175 10.7595 16 10.9992 16 4.3918C15.9999 3.76119 16.2273 3.15164 16.6405 2.6749C17.0537 2.19814 17.6252 1.88613 18.25 1.79604V17.689ZM11.125 1.02068C9.17504 1.02068 7.75004 4.47046 7.75004 6.26464C7.74951 6.89296 7.92477 7.50893 8.25608 8.04304C8.58739 8.57715 9.06154 9.00815 9.62504 9.28741V17.5017C9.62504 17.899 9.78308 18.2801 10.0643 18.5611C10.3457 18.8421 10.7272 19 11.125 19C11.5229 19 11.9044 18.8421 12.1857 18.5611C12.467 18.2801 12.625 17.899 12.625 17.5017V9.28741C13.1885 9.00815 13.6627 8.57715 13.994 8.04304C14.3253 7.50893 14.5005 6.89296 14.5 6.26464C14.5 4.47046 13.075 1.02068 11.125 1.02068ZM12.1075 8.69559C11.7738 8.83043 11.8751 8.37346 11.8751 17.5017C11.8751 17.7004 11.796 17.8909 11.6554 18.0314C11.5147 18.1719 11.324 18.2508 11.125 18.2508C10.9261 18.2508 10.7354 18.1719 10.5947 18.0314C10.4541 17.8909 10.375 17.7004 10.375 17.5017C10.375 8.42965 10.4763 8.83417 10.1426 8.69559C9.65741 8.5 9.24186 8.16409 8.9492 7.73095C8.65654 7.2978 8.50013 6.7872 8.50004 6.26464C8.50004 4.65399 9.82379 1.76982 11.125 1.76982C12.4263 1.76982 13.75 4.65399 13.75 6.26464C13.7499 6.7872 13.5935 7.2978 13.3009 7.73095C13.0082 8.16409 12.5926 8.5 12.1075 8.69559ZM4.93755 1.5226C4.83492 1.36808 4.69561 1.24132 4.53203 1.15363C4.36845 1.06594 4.18569 1.02005 4.00004 1.02005C3.81439 1.02005 3.63164 1.06594 3.46805 1.15363C3.30448 1.24132 3.16517 1.36808 3.06254 1.5226C2.92892 1.32139 2.73397 1.16853 2.50656 1.08664C2.27916 1.00476 2.0314 0.998214 1.79998 1.06798C1.56856 1.13775 1.36579 1.28011 1.22171 1.47399C1.07763 1.66786 0.999906 1.90294 1.00004 2.14439V6.26464C0.997232 6.79129 1.13466 7.30922 1.39824 7.76534C1.66182 8.22148 2.04207 8.5994 2.50004 8.8604V17.5017C2.50004 17.899 2.65808 18.2801 2.93938 18.5611C3.22069 18.8421 3.60221 19 4.00004 19C4.40618 18.9911 4.79223 18.8216 5.07344 18.5289C5.35466 18.2361 5.50808 17.8438 5.50004 17.438V8.8604C5.95801 8.5994 6.33826 8.22148 6.60184 7.76534C6.86543 7.30922 7.00286 6.79129 7.00004 6.26464V2.14439C7.00017 1.90294 6.92245 1.66786 6.77837 1.47399C6.63429 1.28011 6.43153 1.13775 6.2001 1.06798C5.96868 0.998214 5.72092 1.00476 5.49352 1.08664C5.26612 1.16853 5.07116 1.32139 4.93755 1.5226ZM6.25004 6.26464C6.25265 6.6905 6.13283 7.10817 5.90484 7.46804C5.67683 7.8279 5.35022 8.11485 4.96379 8.2948C4.65254 8.44088 4.75004 7.92023 4.75004 17.438C4.7563 17.6354 4.68869 17.828 4.56043 17.9783C4.43215 18.1286 4.25241 18.2258 4.05629 18.2508C3.95317 18.2585 3.84956 18.245 3.75197 18.2108C3.65439 18.1766 3.56493 18.1227 3.48921 18.0523C3.41349 17.9819 3.35317 17.8967 3.31201 17.802C3.27084 17.7072 3.24975 17.605 3.25005 17.5017C3.25005 7.89401 3.34379 8.43714 3.03629 8.2948C2.64986 8.11485 2.32325 7.8279 2.09525 7.46804C1.86725 7.10817 1.74744 6.6905 1.75004 6.26464V2.14439C1.75004 2.04504 1.78955 1.94977 1.85988 1.87953C1.9302 1.80928 2.02559 1.76982 2.12504 1.76982C2.22449 1.76982 2.31988 1.80928 2.3902 1.87953C2.46053 1.94977 2.50004 2.04504 2.50004 2.14439V5.14093C2.50004 5.24028 2.53955 5.33555 2.60987 5.40579C2.6802 5.47604 2.77558 5.5155 2.87504 5.5155H3.25005C3.34949 5.5155 3.44488 5.47604 3.5152 5.40579C3.58553 5.33555 3.62504 5.24028 3.62504 5.14093V2.14439C3.62504 2.04504 3.66455 1.94977 3.73487 1.87953C3.8052 1.80928 3.90058 1.76982 4.00004 1.76982C4.0995 1.76982 4.19488 1.80928 4.26521 1.87953C4.33554 1.94977 4.37505 2.04504 4.37505 2.14439V5.14093C4.37505 5.24028 4.41456 5.33555 4.48488 5.40579C4.55521 5.47604 4.65059 5.5155 4.75004 5.5155H5.12504C5.2245 5.5155 5.31988 5.47604 5.39021 5.40579C5.46053 5.33555 5.50004 5.24028 5.50004 5.14093V2.14439C5.50004 2.04504 5.53955 1.94977 5.60988 1.87953C5.68021 1.80928 5.77559 1.76982 5.87504 1.76982C5.9745 1.76982 6.06988 1.80928 6.14021 1.87953C6.21053 1.94977 6.25004 2.04504 6.25004 2.14439V6.26464Z" fill="#017AC3"/>
</svg>
