<svg width="20" height="20" viewBox="0 0 20 20" fill="none" xmlns="http://www.w3.org/2000/svg">
<path fill-rule="evenodd" clip-rule="evenodd" d="M13.2992 16.1765H18.6473C18.8878 16.1765 19.0582 16.4125 18.9821 16.641C18.7537 17.3283 18.3146 17.9261 17.727 18.3496C17.1395 18.7731 16.4335 19.0007 15.7092 19H4.29122C3.56698 19.0007 2.86095 18.7731 2.27342 18.3496C1.68589 17.9261 1.24674 17.3283 1.01836 16.641C0.942231 16.4128 1.11235 16.1765 1.35316 16.1765H6.70083C5.52862 15.3372 4.70154 14.0684 4.42829 12.6112C4.25828 11.6968 4.17647 10.7958 4.17647 9.9016V7.35294C4.17647 7.15805 4.33452 7 4.52941 7H15.4706C15.6655 7 15.8235 7.15805 15.8235 7.35294V8.05882H16.8826C18.0502 8.05882 19.0002 9.0088 19.0002 10.1765C19.0002 12.6343 17.0792 14.6151 14.6861 14.7564C14.3119 15.3059 13.8427 15.7873 13.2992 16.1765ZM1.89189 16.8823C2.12925 17.3105 2.47698 17.6673 2.89892 17.9156C3.32086 18.1639 3.80162 18.2946 4.29118 18.2941H15.7092C16.1988 18.2946 16.6795 18.1639 17.1015 17.9156C17.5234 17.6673 17.8711 17.3105 18.1085 16.8823H1.89189ZM14.7871 12.8774C14.6573 13.3526 14.4583 13.8034 14.1931 14.2218C14.1838 14.2364 14.1757 14.2516 14.1687 14.2673C13.6202 15.1169 12.8156 15.787 11.8391 16.1765H8.16089C6.57386 15.5434 5.44088 14.1693 5.12331 12.4876C5.1161 12.4404 5.10645 12.3832 5.09515 12.316C5.02271 11.886 4.88235 11.0527 4.88235 9.9016V7.70588H15.1176V9.9016C15.1176 11.0923 14.9639 11.9794 14.8996 12.3507C14.8893 12.41 14.8813 12.4562 14.8765 12.4883C14.8517 12.6199 14.8218 12.7497 14.7871 12.8774ZM15.6072 12.414C15.5959 12.4797 15.5841 12.5455 15.5719 12.6112C15.4816 13.0925 15.3317 13.5548 15.1242 13.9924C16.9215 13.6544 18.2943 12.0602 18.2943 10.1765C18.2943 9.39802 17.661 8.7647 16.8826 8.7647H15.8237V9.9016C15.8237 10.0742 15.8205 10.2498 15.8139 10.4277C15.7898 11.0936 15.7208 11.7572 15.6072 12.414Z" fill="#017AC3"/>
<path d="M7.61765 5.58823C7.61765 5.78313 7.77569 5.94118 7.97059 5.94118C8.16548 5.94118 8.32353 5.78313 8.32353 5.58823C8.32353 5.31862 8.3819 5.2018 8.46273 5.04015C8.55799 4.8497 8.67647 4.61271 8.67647 4.1764C8.67647 3.74013 8.55797 3.50313 8.46275 3.31269C8.38193 3.15105 8.32353 3.03421 8.32353 2.76456C8.32353 2.49502 8.3819 2.37823 8.46273 2.21662C8.55799 2.02618 8.67647 1.78918 8.67647 1.35294C8.67647 1.15805 8.51842 1 8.32353 1C8.12863 1 7.97059 1.15805 7.97059 1.35294C7.97059 1.62248 7.91221 1.73927 7.83139 1.90088C7.73613 2.09133 7.61765 2.32833 7.61765 2.76456C7.61765 3.20084 7.73615 3.43783 7.83137 3.62827C7.91219 3.78992 7.97059 3.90679 7.97059 4.1764C7.97059 4.44601 7.91221 4.56283 7.83139 4.72448C7.73613 4.91493 7.61765 5.15196 7.61765 5.58823Z" fill="#017AC3"/>
<path d="M9.55882 5.58823C9.55882 5.78313 9.71687 5.94118 9.91176 5.94118C10.1067 5.94118 10.2647 5.78313 10.2647 5.58823C10.2647 5.31862 10.3231 5.2018 10.4039 5.04015C10.4992 4.8497 10.6176 4.61271 10.6176 4.1764C10.6176 3.74013 10.4991 3.50313 10.4039 3.31269C10.3231 3.15105 10.2647 3.03421 10.2647 2.76456C10.2647 2.49502 10.3231 2.37823 10.4039 2.21662C10.4992 2.02618 10.6176 1.78918 10.6176 1.35294C10.6176 1.15805 10.4596 1 10.2647 1C10.0698 1 9.91176 1.15805 9.91176 1.35294C9.91176 1.62248 9.85339 1.73927 9.77256 1.90088C9.6773 2.09133 9.55882 2.32833 9.55882 2.76456C9.55882 3.20083 9.67732 3.43783 9.77254 3.62827C9.85336 3.78992 9.91176 3.90679 9.91176 4.1764C9.91176 4.44601 9.85339 4.56283 9.77256 4.72448C9.6773 4.91493 9.55882 5.15196 9.55882 5.58823Z" fill="#017AC3"/>
<path d="M11.3235 5.58823C11.3235 5.78313 11.4816 5.94118 11.6765 5.94118C11.8714 5.94118 12.0294 5.78313 12.0294 5.58823C12.0294 5.31862 12.0878 5.2018 12.1686 5.04015C12.2639 4.8497 12.3824 4.61271 12.3824 4.1764C12.3824 3.74013 12.2639 3.50313 12.1686 3.31269C12.0878 3.15105 12.0294 3.03421 12.0294 2.76456C12.0294 2.49502 12.0878 2.37823 12.1686 2.21662C12.2639 2.02618 12.3824 1.78918 12.3824 1.35294C12.3824 1.15805 12.2243 1 12.0294 1C11.8345 1 11.6765 1.15805 11.6765 1.35294C11.6765 1.62248 11.6181 1.73927 11.5373 1.90088C11.442 2.09133 11.3235 2.32833 11.3235 2.76456C11.3235 3.20083 11.442 3.43783 11.5372 3.62827C11.6181 3.78992 11.6765 3.90679 11.6765 4.1764C11.6765 4.44601 11.6181 4.56283 11.5373 4.72448C11.442 4.91493 11.3235 5.15196 11.3235 5.58823Z" fill="#017AC3"/>
</svg>
