<svg width="20" height="20" viewBox="0 0 20 20" fill="none" xmlns="http://www.w3.org/2000/svg">
<path fill-rule="evenodd" clip-rule="evenodd" d="M2.125 1H17.875C18.1733 1 18.4595 1.1293 18.6705 1.35946C18.8815 1.58962 19 1.90178 19 2.22727V8.77272C19 9.09822 18.8815 9.41037 18.6705 9.64053C18.4595 9.87069 18.1733 9.99999 17.875 9.99999H2.125C1.82663 9.99999 1.54048 9.87069 1.3295 9.64053C1.11853 9.41037 1 9.09822 1 8.77272V2.22727C1 1.90178 1.11853 1.58962 1.3295 1.35946C1.54048 1.1293 1.82663 1 2.125 1ZM7 9.18182H9.625V8.36363H7V9.18182ZM10.375 9.18182H13V8.36363H10.375V9.18182ZM3.625 9.18182H6.25V8.36363H3.625V9.18182ZM16.375 8.36363H13.75V9.18182H16.375V8.36363ZM18.1401 9.062C18.2105 8.98528 18.25 8.88122 18.25 8.77272V2.22727C18.25 2.11878 18.2105 2.01472 18.1401 1.938C18.0698 1.86128 17.9744 1.81819 17.875 1.81819H2.125C2.02554 1.81819 1.93016 1.86128 1.85983 1.938C1.78951 2.01472 1.75 2.11878 1.75 2.22727V8.77272C1.75 8.88122 1.78951 8.98528 1.85983 9.062C1.93016 9.13871 2.02554 9.18182 2.125 9.18182H2.875V7.95455C2.875 7.84604 2.91451 7.74199 2.98483 7.66527C3.05516 7.58855 3.15054 7.54545 3.25 7.54545H16.75C16.8494 7.54545 16.9448 7.58855 17.0151 7.66527C17.0855 7.74199 17.125 7.84604 17.125 7.95455V9.18182H17.875C17.9744 9.18182 18.0698 9.13871 18.1401 9.062ZM3.25 3.04546H16.75C16.8494 3.04546 16.9448 3.08855 17.0151 3.16527C17.0855 3.24199 17.125 3.34605 17.125 3.45454C17.125 3.56304 17.0855 3.6671 17.0151 3.74381C16.9448 3.82053 16.8494 3.86364 16.75 3.86364H3.25C3.15054 3.86364 3.05516 3.82053 2.98483 3.74381C2.91451 3.6671 2.875 3.56304 2.875 3.45454C2.875 3.34605 2.91451 3.24199 2.98483 3.16527C3.05516 3.08855 3.15054 3.04546 3.25 3.04546ZM9.625 16.9546V11.2272C9.625 11.1188 9.66451 11.0147 9.73483 10.938C9.80516 10.8613 9.90054 10.8182 10 10.8182C10.0995 10.8182 10.1948 10.8613 10.2651 10.938C10.3355 11.0147 10.375 11.1188 10.375 11.2272V16.9546C10.375 17.0631 10.3355 17.167 10.2651 17.2438C10.1948 17.3205 10.0995 17.3636 10 17.3636C9.90054 17.3636 9.80516 17.3205 9.73483 17.2438C9.66451 17.167 9.625 17.0631 9.625 16.9546ZM6.25 16.5455V11.2272C6.25 11.1188 6.28951 11.0147 6.35983 10.938C6.43016 10.8613 6.52554 10.8182 6.625 10.8182C6.72446 10.8182 6.81984 10.8613 6.89017 10.938C6.96049 11.0147 7 11.1188 7 11.2272V16.5455C7 17.1964 6.76294 17.8207 6.34099 18.2811C5.91903 18.7414 5.34674 19 4.75 19C4.15327 19 3.58097 18.7414 3.15901 18.2811C2.73705 17.8207 2.5 17.1964 2.5 16.5455V15.7273C2.5 15.6187 2.53951 15.5147 2.60984 15.438C2.68016 15.3613 2.77555 15.3182 2.875 15.3182C2.97446 15.3182 3.06984 15.3613 3.14016 15.438C3.21049 15.5147 3.25 15.6187 3.25 15.7273V16.5455C3.25 16.9794 3.40803 17.3956 3.68934 17.7025C3.97065 18.0094 4.35218 18.1819 4.75 18.1819C5.14782 18.1819 5.52936 18.0094 5.81066 17.7025C6.09197 17.3956 6.25 16.9794 6.25 16.5455ZM16.75 16.5455V15.7273C16.75 15.6187 16.7895 15.5147 16.8598 15.438C16.9302 15.3613 17.0256 15.3182 17.125 15.3182C17.2245 15.3182 17.3199 15.3613 17.3902 15.438C17.4605 15.5147 17.5 15.6187 17.5 15.7273V16.5455C17.5 17.1964 17.2629 17.8207 16.841 18.2811C16.4191 18.7414 15.8468 19 15.25 19C14.6533 19 14.081 18.7414 13.659 18.2811C13.237 17.8207 13 17.1964 13 16.5455V11.2272C13 11.1188 13.0395 11.0147 13.1099 10.938C13.1802 10.8613 13.2755 10.8182 13.375 10.8182C13.4745 10.8182 13.5698 10.8613 13.6401 10.938C13.7105 11.0147 13.75 11.1188 13.75 11.2272V16.5455C13.75 16.9794 13.9081 17.3956 14.1893 17.7025C14.4707 18.0094 14.8522 18.1819 15.25 18.1819C15.6479 18.1819 16.0294 18.0094 16.3106 17.7025C16.592 17.3956 16.75 16.9794 16.75 16.5455Z" fill="#017AC3"/>
</svg>
