<svg width="20" height="20" viewBox="0 0 20 20" fill="none" xmlns="http://www.w3.org/2000/svg">
<g clip-path="url(#clip0_4697_50318)">
<path fill-rule="evenodd" clip-rule="evenodd" d="M3.33328 15.8333C2.4141 15.8333 1.66672 15.0859 1.66672 14.1667C1.66672 13.2475 2.4141 12.5 3.33328 12.5C4.25246 12.5 5 13.2475 5 14.1667C5 15.0859 4.25246 15.8333 3.33328 15.8333ZM3.33328 13.3333C2.87367 13.3333 2.5 13.7071 2.5 14.1667C2.5 14.6263 2.87367 15 3.33328 15C3.79289 15 4.16672 14.6263 4.16672 14.1667C4.16672 13.7071 3.79289 13.3333 3.33328 13.3333ZM5.41672 20H0.416719C0.186641 20 0 19.8137 0 19.5833V18.75C0 18.1938 0.21668 17.6709 0.610039 17.2771C1.00371 16.8837 1.52711 16.6667 2.08328 16.6667H4.58328C5.14008 16.6667 5.66328 16.8837 6.05668 17.2771C6.21918 17.4405 6.21918 17.7037 6.05621 17.8667C5.8934 18.0292 5.62957 18.0287 5.46707 17.8662C5.23133 17.63 4.91746 17.5 4.58328 17.5H2.08328C1.74957 17.5 1.43586 17.6305 1.19965 17.8662C0.96332 18.1025 0.833281 18.4163 0.833281 18.75V19.1667H5.41672C5.64668 19.1667 5.83328 19.3529 5.83328 19.5833C5.83328 19.8137 5.64668 20 5.41672 20ZM10 15.8333C9.08082 15.8333 8.33328 15.0859 8.33328 14.1667C8.33328 13.2475 9.08082 12.5 10 12.5C10.9192 12.5 11.6667 13.2475 11.6667 14.1667C11.6667 15.0859 10.9192 15.8333 10 15.8333ZM10 13.3333C9.54039 13.3333 9.16672 13.7071 9.16672 14.1667C9.16672 14.6263 9.54039 15 10 15C10.4596 15 10.8333 14.6263 10.8333 14.1667C10.8333 13.7071 10.4596 13.3333 10 13.3333ZM7.08328 20C6.85332 20 6.66672 19.8137 6.66672 19.5833V18.75C6.66672 18.1938 6.8834 17.6709 7.2766 17.2771C7.67043 16.8837 8.19379 16.6667 8.75 16.6667H11.25C11.8066 16.6667 12.33 16.8837 12.7234 17.2771C13.1163 17.6704 13.3333 18.1938 13.3333 18.75V19.5833C13.3333 19.638 13.3226 19.6922 13.3017 19.7428C13.2808 19.7934 13.2501 19.8393 13.2114 19.878C13.1727 19.9167 13.1268 19.9474 13.0762 19.9684C13.0256 19.9893 12.9714 20 12.9167 20H7.08328ZM12.5 19.1667V18.75C12.5 18.4163 12.3695 18.1021 12.1338 17.8662C11.8979 17.63 11.5842 17.5 11.25 17.5H8.75C8.41629 17.5 8.10258 17.6305 7.86621 17.8662C7.63 18.1025 7.5 18.4163 7.5 18.75V19.1667H12.5ZM16.6667 15.8333C15.7475 15.8333 15 15.0859 15 14.1667C15 13.2475 15.7475 12.5 16.6667 12.5C17.5859 12.5 18.3333 13.2475 18.3333 14.1667C18.3333 15.0859 17.5859 15.8333 16.6667 15.8333ZM16.6667 13.3333C16.2071 13.3333 15.8333 13.7071 15.8333 14.1667C15.8333 14.6263 16.2071 15 16.6667 15C17.1263 15 17.5 14.6263 17.5 14.1667C17.5 13.7071 17.1263 13.3333 16.6667 13.3333ZM19.5833 20H14.5833C14.5286 20 14.4744 19.9893 14.4238 19.9684C14.3732 19.9474 14.3273 19.9167 14.2886 19.878C14.2499 19.8393 14.2192 19.7934 14.1983 19.7428C14.1774 19.6922 14.1667 19.638 14.1667 19.5833C14.1667 19.5286 14.1774 19.4744 14.1983 19.4238C14.2192 19.3732 14.2499 19.3273 14.2886 19.2886C14.3273 19.2499 14.3732 19.2192 14.4238 19.1983C14.4744 19.1774 14.5286 19.1667 14.5833 19.1667H19.1667V18.75C19.1667 18.4163 19.0362 18.1021 18.8004 17.8662C18.5646 17.63 18.2509 17.5 17.9167 17.5H15.4167C15.0829 17.5 14.7687 17.6305 14.5329 17.8662C14.4943 17.905 14.4484 17.9357 14.3978 17.9567C14.3473 17.9776 14.2931 17.9884 14.2384 17.9884C14.1836 17.9884 14.1294 17.9776 14.0789 17.9567C14.0284 17.9357 13.9824 17.905 13.9438 17.8662C13.905 17.8276 13.8743 17.7816 13.8533 17.7311C13.8324 17.6806 13.8216 17.6264 13.8216 17.5716C13.8216 17.5169 13.8324 17.4627 13.8533 17.4122C13.8743 17.3616 13.905 17.3157 13.9438 17.2771C14.3371 16.8837 14.8604 16.6667 15.4167 16.6667H17.9167C18.4734 16.6667 18.9967 16.8837 19.39 17.2771C19.7828 17.6704 20 18.1938 20 18.75V19.5833C20 19.638 19.9893 19.6922 19.9684 19.7428C19.9474 19.7934 19.9167 19.8393 19.878 19.878C19.8393 19.9167 19.7934 19.9474 19.7428 19.9684C19.6922 19.9893 19.638 20 19.5833 20ZM15.0001 7.91667H13.75V7.5C13.75 6.12121 12.6288 5 11.25 5H8.75C7.37121 5 6.25 6.12121 6.25 7.5V7.91667H5.00005C4.77009 7.91667 4.58333 8.10327 4.58333 8.33323V9.99995C4.5833 10.0547 4.59406 10.1089 4.61501 10.1594C4.63595 10.21 4.66667 10.2559 4.7054 10.2946L6.25 11.839V12.9167C6.25 13.1471 6.43664 13.3333 6.66672 13.3333C6.89668 13.3333 7.08328 13.1471 7.08328 12.9167V10C7.08328 9.77004 6.89668 9.58328 6.66672 9.58328C6.4366 9.58328 6.25 9.77004 6.25 10V10.6608L5.41677 9.82753V8.74995H14.5833V9.82749L13.75 10.6608V10C13.75 9.77004 13.5637 9.58328 13.3333 9.58328C13.1029 9.58328 12.9167 9.77004 12.9167 10V12.9167C12.9167 12.9714 12.9274 13.0256 12.9483 13.0762C12.9692 13.1268 12.9999 13.1727 13.0386 13.2114C13.0773 13.2501 13.1232 13.2808 13.1738 13.3017C13.2244 13.3226 13.2786 13.3333 13.3333 13.3333C13.5637 13.3333 13.75 13.1471 13.75 12.9167V11.8392L15.2947 10.2946C15.373 10.2166 15.4168 10.1104 15.4168 9.99995V8.33323C15.4168 8.10327 15.2304 7.91667 15.0001 7.91667ZM12.9167 7.91667V7.5C12.9167 6.58082 12.1692 5.83328 11.25 5.83328H8.75C7.83082 5.83328 7.08328 6.58082 7.08328 7.5V7.91667H12.9167ZM10 4.16672C8.85133 4.16672 7.91672 3.23211 7.91672 2.08328C7.91672 0.934609 8.85133 0 10 0C11.1487 0 12.0833 0.934609 12.0833 2.08328C12.0833 3.23211 11.1487 4.16672 10 4.16672ZM10 0.833281C9.31074 0.833281 8.75 1.39422 8.75 2.08328C8.75 2.77254 9.31074 3.33328 10 3.33328C10.6893 3.33328 11.25 2.77254 11.25 2.08328C11.25 1.39422 10.6893 0.833281 10 0.833281ZM11.5072 11.6351C11.5578 11.656 11.612 11.6668 11.6667 11.6667C11.7214 11.6668 11.7756 11.656 11.8262 11.6351C11.8768 11.6141 11.9227 11.5835 11.9614 11.5447C12.0001 11.506 12.0308 11.4601 12.0517 11.4095C12.0726 11.3589 12.0833 11.3047 12.0833 11.25V10C12.0833 9.77004 11.8971 9.58328 11.6667 9.58328H8.33328C8.10332 9.58328 7.91672 9.77004 7.91672 10V11.25C7.91672 11.4804 8.10332 11.6667 8.33328 11.6667C8.5634 11.6667 8.75 11.4804 8.75 11.25V10.4167H11.25V11.25C11.25 11.3047 11.2607 11.3589 11.2816 11.4095C11.3026 11.4601 11.3333 11.5061 11.372 11.5448C11.4107 11.5835 11.4566 11.6142 11.5072 11.6351ZM15.8333 11.6667H19.1667C19.6263 11.6667 20 11.2929 20 10.8333V0.833281C20 0.373672 19.6263 0 19.1667 0H12.9167C12.6863 0 12.5 0.186641 12.5 0.416719C12.5 0.64668 12.6863 0.833281 12.9167 0.833281H19.1667V10.8333H15.8333C15.6029 10.8333 15.4167 11.0196 15.4167 11.25C15.4167 11.4804 15.6029 11.6667 15.8333 11.6667ZM0.833281 11.6667H4.16672C4.39668 11.6667 4.58328 11.4804 4.58328 11.25C4.58328 11.0196 4.39668 10.8333 4.16672 10.8333H0.833281V0.833281H7.08328C7.3134 0.833281 7.5 0.64668 7.5 0.416719C7.5 0.186602 7.31336 0 7.08328 0H0.833281C0.373672 0 0 0.373672 0 0.833281V10.8333C0 11.2929 0.373672 11.6667 0.833281 11.6667Z" fill="#017AC3"/>
</g>
<defs>
<clipPath id="clip0_4697_50318">
<rect width="20" height="20" fill="white"/>
</clipPath>
</defs>
</svg>
