<svg width="24" height="25" viewBox="0 0 24 25" fill="none" xmlns="http://www.w3.org/2000/svg">
<path d="M22.9993 21.2835V17.9715C23.0128 17.4301 22.8264 16.9026 22.4756 16.4894C21.4863 15.3242 18.0934 14.5788 16.7485 14.865C15.7001 15.0882 14.9666 16.1408 14.2495 16.8565C11.4802 15.2849 9.18717 12.9965 7.61248 10.2326C8.32957 9.51694 9.38431 8.78491 9.60791 7.73858C9.89429 6.3984 9.14996 3.02716 7.99274 2.03392C7.5857 1.68456 7.06526 1.49483 6.52843 1.50011H3.20992C1.94548 1.5013 0.893514 2.63538 1.00863 3.90679C1 14.865 9.55558 23.5001 20.5879 23.4914C21.8661 23.6067 23.0045 22.5495 22.9993 21.2835Z" stroke="#017AC3" stroke-width="1.5" stroke-linecap="round" stroke-linejoin="round"/>
</svg>
