<svg width="25" height="25" viewBox="0 0 25 25" fill="none" xmlns="http://www.w3.org/2000/svg">
<path d="M7.39 21.96C9.04 22.95 11.02 23.5 13 23.5C19.05 23.5 24 18.55 24 12.5C24 6.45 19.05 1.5 13 1.5C6.95 1.5 2 6.45 2 12.5C2 14.48 2.55 16.35 3.43 18L2 23.5L7.39 21.96Z" stroke="#017AC3" stroke-width="1.5" stroke-miterlimit="10"/>
<path d="M18.1562 15.3377C18.1562 15.5233 18.1149 15.7141 18.0271 15.8997C17.9394 16.0853 17.8258 16.2606 17.676 16.4256C17.423 16.7041 17.1441 16.9052 16.8291 17.0341C16.5193 17.163 16.1836 17.23 15.8221 17.23C15.2954 17.23 14.7325 17.1063 14.1387 16.8536C13.5448 16.6009 12.9509 16.2606 12.3622 15.8327C11.7684 15.3995 11.2055 14.92 10.6685 14.3889C10.1366 13.8527 9.65631 13.2906 9.2277 12.7028C8.80425 12.115 8.46343 11.5272 8.21556 10.9445C7.96769 10.3567 7.84375 9.79469 7.84375 9.25844C7.84375 8.90782 7.90572 8.57266 8.02965 8.26328C8.15359 7.94875 8.34982 7.66 8.62351 7.40219C8.95401 7.07735 9.31549 6.9175 9.69762 6.9175C9.84222 6.9175 9.98681 6.94844 10.1159 7.01032C10.2502 7.07219 10.3689 7.165 10.4619 7.29907L11.6599 8.98516C11.7529 9.11407 11.82 9.23266 11.8665 9.3461C11.913 9.45438 11.9388 9.56266 11.9388 9.66063C11.9388 9.78438 11.9027 9.90813 11.8304 10.0267C11.7632 10.1453 11.6651 10.2691 11.5412 10.3928L11.1487 10.8002C11.0919 10.8569 11.0661 10.9239 11.0661 11.0064C11.0661 11.0477 11.0712 11.0838 11.0816 11.125C11.0971 11.1663 11.1126 11.1972 11.1229 11.2281C11.2158 11.3983 11.3759 11.62 11.6031 11.8881C11.8355 12.1563 12.0834 12.4295 12.3519 12.7028C12.6308 12.9761 12.8993 13.2288 13.173 13.4608C13.4415 13.6877 13.6636 13.8423 13.8391 13.9352C13.865 13.9455 13.896 13.9609 13.9321 13.9764C13.9734 13.9919 14.0147 13.997 14.0612 13.997C14.149 13.997 14.2161 13.9661 14.2729 13.9094L14.6654 13.5227C14.7945 13.3938 14.9184 13.2958 15.0372 13.2339C15.156 13.1617 15.2747 13.1256 15.4038 13.1256C15.502 13.1256 15.6052 13.1463 15.7188 13.1927C15.8325 13.2391 15.9512 13.3061 16.0803 13.3938L17.7896 14.6055C17.9239 14.6983 18.0168 14.8066 18.0736 14.9355C18.1253 15.0644 18.1562 15.1933 18.1562 15.3377Z" stroke="#017AC3" stroke-width="1.5" stroke-miterlimit="10"/>
</svg>
